<svg id="Calque_1" data-name="Calque 1" xmlns="http://www.w3.org/2000/svg" viewBox="0 0 1080 396.43"><defs><style>.cls-1{font-size:168.89px;font-family:CocogooseProTrial-Light, CocogooseProTrial;font-weight:300;}.cls-1,.cls-5{fill:#0f3e61;}.cls-2{letter-spacing:-0.08em;}.cls-3{letter-spacing:-0.09em;}.cls-4{letter-spacing:-0.01em;}.cls-6{fill:#57af33;}</style></defs><title>zen pay</title><text class="cls-1" transform="translate(100.76 243.64) scale(1.08 1)">ZEN-<tspan class="cls-2" x="457.37" y="0">P</tspan><tspan class="cls-3" x="556.43" y="0">A</tspan><tspan class="cls-4" x="661.76" y="0">Y</tspan></text><path class="cls-5" d="M86.92,196.52c4.14,13,8.36,25.9,12.43,38.89l12.13,39,11.89,39c4,13,7.85,26,11.72,39.08l-7.85-4.7,27.9-7,14-3.51c4.66-1.15,9.29-2.39,14-3.42l28-6.45,14-3.22,7-1.61,7-1.53c37.45-8.35,75.14-15.61,112.87-22.63q113.31-20.46,227.88-33l28.62-3.13c9.54-1,19.11-1.79,28.66-2.63l28.68-2.51L694.59,255l28.71-2.08c9.57-.59,19.16-1,28.74-1.54s19.16-1,28.74-1.43l28.76-1.08c76.69-2.52,153.45-2.26,230,1.69v1.25c-19.13,0-38.27,0-57.4.32l-28.7.38-7.18.1-7.17.2-14.35.4-28.69.79c-4.78.11-9.56.32-14.34.52l-14.34.61-28.68,1.21c-9.56.41-19.1,1.05-28.66,1.56q-114.63,6.39-228.74,19.52T354,309.88Q240.86,329.26,128.91,355l-.77.18-.2-.76L85.71,196.84Z"/><path class="cls-6" d="M75.65,217.18c4.14,13,8.36,25.91,12.43,38.89l12.13,39,11.89,39c4,13,7.85,26.05,11.72,39.09L116,368.45l27.9-7,13.95-3.51c4.66-1.15,9.29-2.39,14-3.42l28-6.45,14-3.22,7-1.61,7-1.52c37.45-8.36,75.14-15.62,112.87-22.64q113.31-20.46,227.88-33l28.62-3.13c9.54-1,19.11-1.79,28.67-2.63l28.67-2.51,28.71-2.11L712,273.6c9.57-.59,19.16-1,28.74-1.53s19.16-1,28.74-1.44l28.76-1.08c76.69-2.52,153.45-2.25,230,1.69v1.26c-19.13,0-38.27,0-57.4.32l-28.7.37-7.18.1-7.17.2-14.35.4-28.69.8c-4.78.1-9.56.31-14.34.52l-14.34.6L827.42,277c-9.56.4-19.1,1-28.66,1.55Q684.13,285,570,298.1T342.75,330.54q-113.16,19.4-225.11,45.12l-.77.18-.2-.76L74.44,217.51Z"/><polygon class="cls-6" points="1037.2 40.44 1037.2 78.58 1025.4 78.58 1025.4 52.24 1000 52.24 1000 40.44 1037.2 40.44"/></svg>
